<svg width="500" height="100" viewBox="0 0 500 100" fill="none" xmlns="http://www.w3.org/2000/svg">
<path d="M486 0C493.732 0 500 6.26801 500 14V86C500 93.732 493.732 100 486 100H14C6.26801 100 3.2215e-08 93.732 0 86V14C0 6.26801 6.26801 2.33543e-07 14 0H486ZM51 10C28.9086 10 11 27.9086 11 50C11 72.0914 28.9086 90 51 90C73.0914 90 91 72.0914 91 50C91 27.9086 73.0914 10 51 10ZM116 50C108.268 50 102 56.268 102 64V68C102 75.732 108.268 82 116 82H468C475.732 82 482 75.732 482 68V64C482 56.268 475.732 50 468 50H116Z" fill="#111828"/>
</svg>
